<svg width="18" height="18" viewBox="0 0 18 18" fill="none" xmlns="http://www.w3.org/2000/svg">
<path d="M16.239 2.53862C16.6021 2.96762 16.9112 3.44282 17.1565 3.95432C16.9524 4.15925 16.7098 4.3218 16.4427 4.43261C16.1756 4.54343 15.8892 4.60032 15.6 4.60002C15.2068 4.60066 14.8208 4.4954 14.4824 4.29532L16.239 2.53862ZM15.4614 1.75982L13.7047 3.51762C13.4557 3.09753 13.3541 2.60639 13.4159 2.122C13.4776 1.63762 13.6993 1.1877 14.0457 0.843522C14.5572 1.08882 15.0324 1.39792 15.4614 1.75982ZM17.8 6.80002C17.8005 6.20916 17.7217 5.62091 17.5657 5.05102C17.0157 5.45802 16.3359 5.70002 15.6 5.70002C14.9142 5.70119 14.2453 5.48771 13.6871 5.08952L12.5277 6.25002L16.711 10.4333C17.3985 9.39052 17.8 8.14202 17.8 6.80002ZM12.3 2.40002C12.3 1.66302 12.5409 0.983222 12.949 0.434322C12.3791 0.278364 11.7908 0.199561 11.2 0.200022C9.9081 0.197751 8.64427 0.576555 7.56665 1.28902L11.75 5.47232L12.9094 4.31182C12.5118 3.75369 12.2988 3.08524 12.3 2.40002ZM10.8777 7.90002C12.1737 9.34472 13.0147 11.1397 13.2955 13.0601C14.3371 12.7107 15.2751 12.1069 16.0246 11.3034L11.75 7.02772L10.8777 7.90002ZM10.9723 6.25002L10.1 7.12122C8.65555 5.82537 6.86101 4.98434 4.94095 4.70342C5.29056 3.66216 5.89435 2.72453 6.69765 1.97542L10.9723 6.25002ZM1.84995 5.70002C1.41234 5.70002 0.99266 5.87386 0.683225 6.1833C0.37379 6.49273 0.199951 6.91242 0.199951 7.35002V9.00002C0.199951 11.3339 1.12709 13.5722 2.77741 15.2226C4.42773 16.8729 6.66605 17.8 8.99995 17.8H10.65C11.0876 17.8 11.5072 17.6262 11.8167 17.3167C12.1261 17.0073 12.3 16.5876 12.3 16.15V14.5C12.3 12.1661 11.3728 9.9278 9.72249 8.27748C8.07217 6.62716 5.83386 5.70002 3.49995 5.70002H1.84995ZM4.76055 10.2606C4.81164 10.2094 4.87233 10.1688 4.93915 10.141C5.00597 10.1133 5.07761 10.099 5.14995 10.099C5.2223 10.099 5.29393 10.1133 5.36075 10.141C5.42757 10.1688 5.48826 10.2094 5.53935 10.2606L7.73935 12.4606C7.84263 12.5639 7.90065 12.704 7.90065 12.85C7.90065 12.9961 7.84263 13.1361 7.73935 13.2394C7.63608 13.3427 7.496 13.4007 7.34995 13.4007C7.2039 13.4007 7.06383 13.3427 6.96055 13.2394L4.76055 11.0394C4.70933 10.9883 4.66869 10.9276 4.64097 10.8608C4.61324 10.794 4.59897 10.7224 4.59897 10.65C4.59897 10.5777 4.61324 10.506 4.64097 10.4392C4.66869 10.3724 4.70933 10.3117 4.76055 10.2606Z" fill="white"/>
</svg>
